<?xml version="1.0" standalone="no"?>
<!DOCTYPE svg PUBLIC "-//W3C//DTD SVG 20010904//EN"
 "http://www.w3.org/TR/2001/REC-SVG-20010904/DTD/svg10.dtd">
<svg version="1.0" xmlns="http://www.w3.org/2000/svg"
 width="109.000000pt" height="109.000000pt" viewBox="0 0 109.000000 109.000000"
 preserveAspectRatio="xMidYMid meet">
<metadata>
Created by potrace 1.14, written by Peter Selinger 2001-2017
</metadata>
<g transform="translate(0.000000,109.000000) scale(0.100000,-0.100000)"
fill="#000000" stroke="none">
<path d="M4 553 l1 -538 538 -2 537 -2 1 27 c1 36 1 1023 0 1040 -1 9 -116 12
-539 12 l-538 0 0 -537z m1024 483 c5 -3 8 -896 3 -963 -1 -19 -970 -19 -972
0 -1 6 -2 226 -3 487 l-1 475 120 5 c142 6 842 3 853 -4z"/>
<path d="M130 870 c-5 -3 -9 -38 -9 -78 l1 -72 42 0 c52 0 87 30 69 58 -5 10
-8 31 -6 49 4 26 1 32 -19 39 -29 9 -66 11 -78 4z m70 -41 c0 -16 -31 -22 -43
-10 -9 9 -9 14 2 20 16 10 41 4 41 -10z m0 -59 c0 -14 -20 -22 -37 -16 -12 5
-13 9 -3 21 11 14 40 10 40 -5z"/>
<path d="M283 872 c-6 -4 -11 -38 -10 -80 l0 -73 45 3 c52 3 72 28 23 28 l-31
0 0 59 c0 60 -7 76 -27 63z"/>
<path d="M403 868 c-11 -15 -11 -82 0 -114 10 -30 45 -43 80 -31 30 10 42 41
40 105 -1 50 -2 52 -18 46 -10 -4 -15 -21 -15 -53 0 -55 -11 -74 -36 -69 -15
3 -20 14 -22 58 -3 59 -13 79 -29 58z"/>
<path d="M568 866 c-3 -10 -3 -84 1 -128 1 -24 91 -27 91 -3 0 10 -10 15 -30
15 -20 0 -30 5 -30 15 0 9 9 15 25 15 16 0 25 6 25 15 0 13 -18 20 -42 16 -5
0 -8 6 -8 14 0 14 18 20 48 16 8 -2 12 5 10 16 -2 14 -13 18 -45 19 -23 0 -44
-4 -45 -10z"/>
<path d="M121 565 c0 -41 4 -77 9 -80 13 -8 28 18 25 45 -4 43 6 42 41 -4 46
-60 59 -53 58 32 -2 86 -2 82 -19 82 -11 0 -15 -12 -15 -47 l0 -48 -33 47
c-17 26 -40 48 -49 48 -15 0 -17 -11 -17 -75z"/>
<path d="M299 618 c-1 -28 -1 -97 0 -119 1 -9 8 -16 16 -16 12 0 15 16 15 79
0 63 -3 78 -15 78 -9 0 -15 -10 -16 -22z"/>
<path d="M378 628 c-2 -7 -4 -42 -4 -78 l1 -65 45 0 c33 1 45 5 45 15 0 8 -7
15 -15 16 -8 1 -21 2 -27 2 -9 2 -13 21 -13 62 0 45 -4 60 -14 60 -8 0 -16 -6
-18 -12z"/>
<path d="M498 593 c-1 -27 -2 -62 0 -80 3 -30 5 -31 45 -29 23 1 43 5 45 9 7
20 -1 26 -28 23 -24 -3 -30 0 -28 13 2 9 12 16 23 16 22 0 37 14 29 27 -3 4
-17 8 -30 8 -34 0 -26 24 9 28 47 6 33 32 -17 32 l-44 0 -4 -47z"/>
<path d="M134 402 c-36 -25 -14 -75 38 -86 29 -6 31 -8 16 -22 -14 -15 -18
-15 -41 1 -32 21 -45 3 -17 -25 38 -38 100 -17 100 35 0 17 -9 27 -40 39 -43
17 -53 36 -20 36 11 0 20 -4 20 -10 0 -5 9 -10 20 -10 24 0 26 13 4 34 -16 17
-61 21 -80 8z"/>
<path d="M270 331 c0 -70 2 -79 18 -77 11 2 16 10 14 25 -3 16 2 21 21 21 29
0 57 29 57 58 0 32 -27 52 -71 52 l-39 0 0 -79z m68 41 c19 -13 4 -41 -19 -35
-19 5 -25 23 -12 36 8 9 15 9 31 -1z"/>
<path d="M442 403 c-19 -8 -40 -55 -36 -83 8 -53 84 -88 125 -57 43 33 50 87
14 122 -23 24 -69 32 -103 18z m76 -35 c19 -19 15 -66 -7 -78 -21 -10 -51 -4
-63 14 -30 43 33 101 70 64z"/>
<path d="M602 348 c0 -35 2 -71 5 -81 5 -21 27 -18 29 4 1 8 2 19 3 26 2 19
27 5 39 -21 5 -12 17 -23 26 -23 19 0 19 2 5 28 -7 14 -7 29 2 54 18 48 -7 75
-66 75 l-42 0 -1 -62z m72 26 c19 -7 9 -34 -14 -34 -18 0 -34 23 -23 34 8 8
17 8 37 0z"/>
<path d="M747 403 c-13 -12 -7 -22 16 -25 19 -3 22 -10 25 -60 2 -32 7 -58 12
-58 6 0 13 0 17 0 4 0 7 26 8 57 0 48 3 58 20 63 11 3 21 11 23 18 1 8 -15 12
-56 12 -32 0 -62 -3 -65 -7z"/>
<path d="M890 276 c0 -18 13 -27 25 -18 18 13 15 32 -5 32 -11 0 -20 -6 -20
-14z"/>
</g>
</svg>
